<?xml version="1.0" encoding="utf-8"?>
<!-- Generator: Adobe Illustrator 26.2.1, SVG Export Plug-In . SVG Version: 6.00 Build 0)  -->
<svg version="1.1" id="Layer_1" xmlns="http://www.w3.org/2000/svg" xmlns:xlink="http://www.w3.org/1999/xlink" x="0px" y="0px"
	 viewBox="0 0 25 20" style="enable-background:new 0 0 25 20;" xml:space="preserve">
<style type="text/css">
	.st0{fill:#494949;}
</style>
<path class="st0" d="M18.3,13.8l2.3-2.3c0.6-0.6,0.3-1.5-0.4-1.7l-1.4-0.4V4.8c0-0.6-0.5-1-1-1h-2.1V2.4c0-0.4-0.4-0.8-0.8-0.8h-4.7
	C9.7,1.6,9.4,2,9.4,2.4v1.3H7.2c-0.6,0-1.1,0.5-1.1,1v4.6L4.8,9.8c-0.7,0.2-1,1.2-0.4,1.7l2.3,2.3c-0.6,1.4-1.9,2.5-3.9,2.5
	c-0.4,0-0.8,0.4-0.8,0.8v0.5c0,0.4,0.4,0.8,0.8,0.8c2,0,3.5-0.7,4.7-1.9c0.5,1.1,1.6,1.9,2.9,1.9h4.2c1.3,0,2.4-0.8,2.9-1.9
	c1.2,1.3,2.7,1.9,4.7,1.9c0.4,0,0.8-0.4,0.8-0.8v-0.5c0-0.4-0.4-0.8-0.8-0.8C20.2,16.3,18.9,15.3,18.3,13.8z M8.3,5.8h8.4v2.9
	l-3.9-1.2c-0.2-0.1-0.4-0.1-0.6,0L8.3,8.7V5.8z"/>
</svg>
