<?xml version="1.0" encoding="utf-8"?>
<!-- Generator: Adobe Illustrator 26.2.1, SVG Export Plug-In . SVG Version: 6.00 Build 0)  -->
<svg version="1.1" id="Layer_1" xmlns="http://www.w3.org/2000/svg" xmlns:xlink="http://www.w3.org/1999/xlink" x="0px" y="0px"
	 viewBox="0 0 25 25" style="enable-background:new 0 0 25 25;" xml:space="preserve">
<style type="text/css">
	.st0{fill:#494949;}
</style>
<path class="st0" d="M22.1,7.8h-0.3v-2c0-1.8-4.1-3.3-9.2-3.3C7.4,2.5,3.3,4,3.3,5.8v2H2.9c-0.5,0-1,0.4-1,1v3.3c0,0.5,0.4,1,1,1
	h0.3v6.6c0,0.7,0.6,1.3,1.3,1.3v1.3c0,0.7,0.6,1.3,1.3,1.3h1.3c0.7,0,1.3-0.6,1.3-1.3V21h7.9v1.3c0,0.7,0.6,1.3,1.3,1.3h1.3
	c0.7,0,1.3-0.6,1.3-1.3V21h0.3c0.7,0,1.1-0.5,1.1-1.1v-6.9h0.3c0.5,0,1-0.4,1-1V8.8C23,8.3,22.6,7.8,22.1,7.8z M8.5,5.5
	c0-0.2,0.1-0.3,0.3-0.3h7.3c0.2,0,0.3,0.1,0.3,0.3v0.7c0,0.2-0.1,0.3-0.3,0.3H8.9c-0.2,0-0.3-0.1-0.3-0.3V5.5z M6.6,19
	c-0.7,0-1.3-0.6-1.3-1.3c0-0.7,0.6-1.3,1.3-1.3s1.3,0.6,1.3,1.3C7.9,18.4,7.3,19,6.6,19z M11.8,14.4H7.2c-0.7,0-1.3-0.6-1.3-1.3v-4
	c0-0.7,0.6-1.3,1.3-1.3h4.6V14.4z M13.2,14.4V7.8h4.6c0.7,0,1.3,0.6,1.3,1.3v4c0,0.7-0.6,1.3-1.3,1.3H13.2z M18.4,19
	c-0.7,0-1.3-0.6-1.3-1.3c0-0.7,0.6-1.3,1.3-1.3c0.7,0,1.3,0.6,1.3,1.3C19.8,18.4,19.2,19,18.4,19z"/>
</svg>
