<?xml version="1.0" encoding="utf-8"?>
<!-- Generator: Adobe Illustrator 26.2.1, SVG Export Plug-In . SVG Version: 6.00 Build 0)  -->
<svg version="1.1" id="Layer_1" xmlns="http://www.w3.org/2000/svg" xmlns:xlink="http://www.w3.org/1999/xlink" x="0px" y="0px"
	 viewBox="0 0 28 21.4" style="enable-background:new 0 0 28 21.4;" xml:space="preserve">
<style type="text/css">
	.st0{fill:#494949;}
</style>
<path class="st0" d="M22,8.1h-0.5l-3.7-4.7c-0.2-0.3-0.5-0.5-0.8-0.6c-0.3-0.1-0.6-0.2-0.9-0.2H8.7C7.8,2.6,7,3.1,6.7,4L5,8.1
	c-0.9,0.2-1.6,1.1-1.6,2.1v3.8c0,0.3,0.2,0.5,0.5,0.5h1.6c0,1.8,1.5,3.3,3.3,3.3s3.3-1.5,3.3-3.3h4.4c0,1.8,1.5,3.3,3.3,3.3
	c1.8,0,3.3-1.5,3.3-3.3h1.6c0.3,0,0.5-0.2,0.5-0.5v-2.7C25.3,9.5,23.8,8.1,22,8.1z M8.9,16.3c-0.9,0-1.6-0.7-1.6-1.6S8,13,8.9,13
	c0.9,0,1.6,0.7,1.6,1.6S9.8,16.3,8.9,16.3z M11.3,8.1H7.4l1.3-3.3h2.6V8.1z M13,8.1V4.8H16l2.6,3.3H13z M19.8,16.3
	c-0.9,0-1.6-0.7-1.6-1.6s0.7-1.6,1.6-1.6c0.9,0,1.6,0.7,1.6,1.6S20.7,16.3,19.8,16.3z"/>
</svg>
