<?xml version="1.0" encoding="utf-8"?>
<!-- Generator: Adobe Illustrator 26.2.1, SVG Export Plug-In . SVG Version: 6.00 Build 0)  -->
<svg version="1.1" id="Layer_1" xmlns="http://www.w3.org/2000/svg" xmlns:xlink="http://www.w3.org/1999/xlink" x="0px" y="0px"
	 viewBox="0 0 26.5 20.4" style="enable-background:new 0 0 26.5 20.4;" xml:space="preserve">
<style type="text/css">
	.st0{display:none;fill:#FFFFFF;}
	.st1{display:none;fill:none;stroke:#231F20;stroke-width:0.9992;}
	.st2{fill:#494949;}
</style>
<g id="Background">
	<path class="st0" d="M289.2,263.9c0,13.6-11,24.6-24.6,24.6H18.5c-13.6,0-24.6-11-24.6-24.6V18.5c0-13.6,11-24.6,24.6-24.6h246.1
		c13.6,0,24.6,11,24.6,24.6V263.9z M283.1,18.5c0-10.2-8.3-18.5-18.5-18.5H18.5C8.3,0,0,8.3,0,18.5V264c0,10.2,8.3,18.5,18.5,18.5
		h246.2c10.2,0,18.5-8.3,18.5-18.5L283.1,18.5L283.1,18.5z"/>
	<path class="st1" d="M289.2,263.9c0,13.6-11,24.6-24.6,24.6H18.5c-13.6,0-24.6-11-24.6-24.6V18.5c0-13.6,11-24.6,24.6-24.6h246.1
		c13.6,0,24.6,11,24.6,24.6V263.9z"/>
</g>
<g id="Picnic_Area">
	<rect x="7" y="3.1" class="st2" width="13" height="1.7"/>
	<rect x="2.7" y="10.4" class="st2" width="21" height="1.6"/>
	<path class="st2" d="M12.1,5.3H9.9L5.8,17.9h2.3C8.1,18.1,12.1,5.3,12.1,5.3z"/>
	<polygon class="st2" points="14.8,5.3 17,5.3 20.6,17.9 18.3,17.9 	"/>
</g>
</svg>
